<?xml version="1.0" encoding="utf-8"?>
<!-- Generator: Adobe Illustrator 22.0.1, SVG Export Plug-In . SVG Version: 6.00 Build 0)  -->
<svg version="1.1" id="Capa_1" xmlns="http://www.w3.org/2000/svg" xmlns:xlink="http://www.w3.org/1999/xlink" x="0px" y="0px"
	 viewBox="0 0 350.5 134.8" style="enable-background:new 0 0 350.5 134.8;" xml:space="preserve">
<style type="text/css">
	.st0{fill:#1A1A1A;}
	.st1{fill:#C36717;}
</style>
<g>
	<g>
		<g>
			<path class="st0" d="M109.6,110.2c0.8-1.5,1.9-2.6,3.2-3.4c1.4-0.8,2.9-1.2,4.6-1.2c1.7,0,3.1,0.4,4.3,1.1
				c1.2,0.7,2.1,1.6,2.7,2.7v-3.4h3.2v18.9h-3.2v-3.5c-0.6,1.1-1.5,2-2.8,2.7c-1.2,0.7-2.7,1.1-4.3,1.1c-1.7,0-3.2-0.4-4.6-1.2
				c-1.4-0.8-2.4-2-3.2-3.5s-1.2-3.2-1.2-5.1C108.5,113.3,108.8,111.6,109.6,110.2z M123.6,111.6c-0.6-1.1-1.3-1.9-2.3-2.4
				c-1-0.6-2.1-0.8-3.2-0.8c-1.2,0-2.2,0.3-3.2,0.8c-1,0.6-1.7,1.4-2.3,2.4c-0.6,1.1-0.9,2.3-0.9,3.7c0,1.4,0.3,2.7,0.9,3.8
				c0.6,1.1,1.3,1.9,2.3,2.4c1,0.6,2,0.8,3.2,0.8c1.2,0,2.2-0.3,3.2-0.8c1-0.6,1.8-1.4,2.3-2.4c0.6-1.1,0.9-2.3,0.9-3.7
				C124.4,113.9,124.2,112.6,123.6,111.6z"/>
			<path class="st0" d="M131.5,110.2c0.8-1.5,1.9-2.6,3.2-3.4c1.4-0.8,2.9-1.2,4.6-1.2c1.6,0,3.1,0.4,4.3,1.1
				c1.2,0.7,2.1,1.6,2.7,2.7v-3.4h3.2v27.9h-3.2v-12.4c-0.6,1.1-1.5,2-2.8,2.7c-1.2,0.7-2.7,1.1-4.3,1.1c-1.7,0-3.2-0.4-4.5-1.2
				c-1.4-0.8-2.4-2-3.2-3.5s-1.2-3.2-1.2-5.1C130.4,113.3,130.8,111.6,131.5,110.2z M145.5,111.6c-0.6-1.1-1.3-1.9-2.3-2.4
				c-1-0.6-2.1-0.8-3.2-0.8c-1.2,0-2.2,0.3-3.2,0.8c-1,0.6-1.7,1.4-2.3,2.4c-0.6,1.1-0.9,2.3-0.9,3.7c0,1.4,0.3,2.7,0.9,3.8
				c0.6,1.1,1.3,1.9,2.3,2.4c1,0.6,2,0.8,3.2,0.8c1.2,0,2.2-0.3,3.2-0.8c1-0.6,1.8-1.4,2.3-2.4c0.6-1.1,0.9-2.3,0.9-3.7
				C146.4,113.9,146.1,112.6,145.5,111.6z"/>
			<path class="st0" d="M170.2,105.9v18.9h-3.1V122c-0.6,1-1.4,1.7-2.5,2.3c-1.1,0.5-2.2,0.8-3.5,0.8c-1.5,0-2.8-0.3-4-0.9
				c-1.2-0.6-2.1-1.5-2.8-2.7c-0.7-1.2-1-2.7-1-4.4v-11.1h3.1v10.7c0,1.9,0.5,3.3,1.4,4.3c0.9,1,2.2,1.5,3.9,1.5c1.7,0,3-0.5,4-1.6
				c1-1,1.4-2.5,1.4-4.5v-10.4H170.2z"/>
			<path class="st0" d="M179.1,100.5l-7.3,3.9v-2.3l7.3-4.3V100.5z M177.3,105.9v18.9h-3.1v-18.9H177.3z"/>
			<path class="st0" d="M206.2,116.5h-15.1c0.1,1.9,0.8,3.3,1.9,4.4c1.2,1,2.6,1.6,4.2,1.6c1.4,0,2.5-0.3,3.4-0.9
				c0.9-0.6,1.5-1.5,1.9-2.5h3.4c-0.5,1.8-1.5,3.3-3,4.4c-1.5,1.1-3.4,1.7-5.7,1.7c-1.8,0-3.4-0.4-4.8-1.2c-1.4-0.8-2.5-1.9-3.3-3.4
				c-0.8-1.5-1.2-3.2-1.2-5.2c0-2,0.4-3.7,1.2-5.1c0.8-1.5,1.9-2.6,3.3-3.4c1.4-0.8,3-1.2,4.9-1.2c1.8,0,3.4,0.4,4.8,1.2
				c1.4,0.8,2.4,1.9,3.2,3.2c0.7,1.4,1.1,2.9,1.1,4.6C206.3,115.2,206.3,115.8,206.2,116.5z M202.3,110.9c-0.5-0.9-1.2-1.5-2.2-2
				c-0.9-0.4-1.9-0.7-3-0.7c-1.6,0-2.9,0.5-4.1,1.5c-1.1,1-1.8,2.4-1.9,4.2h11.9C203.1,112.8,202.8,111.7,202.3,110.9z"/>
			<path class="st0" d="M211.9,124.3c-1.1-0.5-2.1-1.2-2.7-2.1c-0.7-0.9-1-1.9-1.1-3.1h3.2c0.1,0.9,0.5,1.7,1.3,2.3
				c0.8,0.6,1.8,0.9,3.1,0.9c1.2,0,2.1-0.3,2.8-0.8c0.7-0.5,1-1.2,1-2c0-0.8-0.4-1.4-1.1-1.8c-0.7-0.4-1.9-0.8-3.4-1.2
				c-1.4-0.4-2.5-0.7-3.4-1.1c-0.9-0.4-1.6-0.9-2.3-1.7c-0.6-0.7-0.9-1.7-0.9-2.9c0-1,0.3-1.8,0.9-2.7c0.6-0.8,1.4-1.4,2.4-1.9
				c1.1-0.5,2.3-0.7,3.6-0.7c2.1,0,3.8,0.5,5.1,1.6c1.3,1.1,2,2.5,2.1,4.3h-3.1c-0.1-1-0.5-1.8-1.2-2.4c-0.7-0.6-1.7-0.9-2.9-0.9
				c-1.1,0-2,0.2-2.7,0.7c-0.7,0.5-1,1.1-1,1.9c0,0.6,0.2,1.1,0.6,1.5c0.4,0.4,0.9,0.7,1.5,1c0.6,0.2,1.5,0.5,2.5,0.8
				c1.4,0.4,2.5,0.7,3.3,1.1c0.9,0.4,1.6,0.9,2.2,1.6c0.6,0.7,0.9,1.6,0.9,2.8c0,1-0.3,2-0.9,2.8c-0.6,0.8-1.4,1.5-2.4,1.9
				c-1,0.5-2.2,0.7-3.6,0.7C214.3,125.1,213,124.8,211.9,124.3z"/>
			<path class="st0" d="M229.5,108.5v11.1c0,0.9,0.2,1.6,0.6,1.9c0.4,0.4,1.1,0.6,2,0.6h2.3v2.7h-2.8c-1.7,0-3.1-0.4-3.9-1.2
				c-0.9-0.8-1.3-2.1-1.3-4v-11.1h-2.4v-2.6h2.4v-4.8h3.1v4.8h4.9v2.6H229.5z"/>
			<path class="st0" d="M236.9,110.2c0.8-1.5,1.9-2.6,3.2-3.4c1.4-0.8,2.9-1.2,4.6-1.2c1.7,0,3.1,0.4,4.3,1.1
				c1.2,0.7,2.1,1.6,2.7,2.7v-3.4h3.2v18.9h-3.2v-3.5c-0.6,1.1-1.5,2-2.8,2.7c-1.2,0.7-2.7,1.1-4.3,1.1c-1.7,0-3.2-0.4-4.6-1.2
				c-1.4-0.8-2.4-2-3.2-3.5s-1.2-3.2-1.2-5.1C235.7,113.3,236.1,111.6,236.9,110.2z M250.8,111.6c-0.6-1.1-1.3-1.9-2.3-2.4
				c-1-0.6-2.1-0.8-3.2-0.8s-2.2,0.3-3.2,0.8c-1,0.6-1.7,1.4-2.3,2.4c-0.6,1.1-0.9,2.3-0.9,3.7c0,1.4,0.3,2.7,0.9,3.8
				c0.6,1.1,1.3,1.9,2.3,2.4c1,0.6,2,0.8,3.2,0.8s2.2-0.3,3.2-0.8c1-0.6,1.8-1.4,2.3-2.4c0.6-1.1,0.9-2.3,0.9-3.7
				C251.7,113.9,251.4,112.6,250.8,111.6z M249.3,100.5l-7.3,3.9v-2.3l7.3-4.3V100.5z"/>
			<path class="st0" d="M261.6,124.3c-1.1-0.5-2.1-1.2-2.7-2.1c-0.7-0.9-1-1.9-1.1-3.1h3.2c0.1,0.9,0.5,1.7,1.3,2.3
				c0.8,0.6,1.8,0.9,3.1,0.9c1.2,0,2.1-0.3,2.8-0.8c0.7-0.5,1-1.2,1-2c0-0.8-0.4-1.4-1.1-1.8c-0.7-0.4-1.9-0.8-3.4-1.2
				c-1.4-0.4-2.5-0.7-3.4-1.1c-0.9-0.4-1.6-0.9-2.3-1.7c-0.6-0.7-0.9-1.7-0.9-2.9c0-1,0.3-1.8,0.9-2.7c0.6-0.8,1.4-1.4,2.4-1.9
				c1.1-0.5,2.3-0.7,3.6-0.7c2.1,0,3.8,0.5,5.1,1.6c1.3,1.1,2,2.5,2.1,4.3h-3.1c-0.1-1-0.5-1.8-1.2-2.4c-0.7-0.6-1.7-0.9-2.9-0.9
				c-1.1,0-2,0.2-2.7,0.7c-0.7,0.5-1,1.1-1,1.9c0,0.6,0.2,1.1,0.6,1.5c0.4,0.4,0.9,0.7,1.5,1s1.5,0.5,2.5,0.8
				c1.4,0.4,2.5,0.7,3.3,1.1c0.9,0.4,1.6,0.9,2.2,1.6c0.6,0.7,0.9,1.6,0.9,2.8c0,1-0.3,2-0.9,2.8c-0.6,0.8-1.4,1.5-2.4,1.9
				c-1,0.5-2.2,0.7-3.6,0.7C264,125.1,262.7,124.8,261.6,124.3z"/>
			<path class="st0" d="M289.2,106.6c1.2-0.7,2.7-1.1,4.2-1.1c1.7,0,3.2,0.4,4.6,1.2c1.4,0.8,2.4,1.9,3.2,3.4
				c0.8,1.5,1.2,3.2,1.2,5.1c0,1.9-0.4,3.6-1.2,5.1c-0.8,1.5-1.9,2.7-3.2,3.5c-1.4,0.8-2.9,1.2-4.6,1.2c-1.6,0-3.1-0.4-4.3-1.1
				c-1.2-0.7-2.2-1.6-2.8-2.7v3.5h-3.1V99.3h3.1v10.1C287,108.3,288,107.4,289.2,106.6z M298.4,111.5c-0.6-1.1-1.4-1.9-2.3-2.4
				c-1-0.6-2.1-0.8-3.2-0.8c-1.1,0-2.2,0.3-3.2,0.8c-1,0.6-1.8,1.4-2.3,2.4s-0.9,2.3-0.9,3.7c0,1.4,0.3,2.7,0.9,3.7
				c0.6,1.1,1.4,1.9,2.3,2.4c1,0.6,2,0.8,3.2,0.8c1.2,0,2.2-0.3,3.2-0.8c1-0.6,1.8-1.4,2.3-2.4c0.6-1.1,0.9-2.3,0.9-3.8
				C299.2,113.8,298.9,112.6,298.4,111.5z"/>
			<path class="st0" d="M305.3,102.2c-0.4-0.4-0.6-0.9-0.6-1.5c0-0.6,0.2-1.1,0.6-1.5c0.4-0.4,0.9-0.6,1.5-0.6
				c0.6,0,1.1,0.2,1.5,0.6c0.4,0.4,0.6,0.9,0.6,1.5c0,0.6-0.2,1.1-0.6,1.5c-0.4,0.4-0.9,0.6-1.5,0.6
				C306.2,102.8,305.7,102.6,305.3,102.2z M308.3,105.9v18.9h-3.1v-18.9H308.3z"/>
			<path class="st0" d="M329.4,116.5h-15.1c0.1,1.9,0.8,3.3,1.9,4.4c1.2,1,2.6,1.6,4.2,1.6c1.4,0,2.5-0.3,3.4-0.9
				c0.9-0.6,1.5-1.5,1.9-2.5h3.4c-0.5,1.8-1.5,3.3-3,4.4c-1.5,1.1-3.4,1.7-5.7,1.7c-1.8,0-3.4-0.4-4.8-1.2c-1.4-0.8-2.5-1.9-3.3-3.4
				c-0.8-1.5-1.2-3.2-1.2-5.2c0-2,0.4-3.7,1.2-5.1c0.8-1.5,1.9-2.6,3.3-3.4c1.4-0.8,3-1.2,4.9-1.2c1.8,0,3.4,0.4,4.8,1.2
				c1.4,0.8,2.4,1.9,3.2,3.2c0.7,1.4,1.1,2.9,1.1,4.6C329.5,115.2,329.5,115.8,329.4,116.5z M325.5,110.9c-0.5-0.9-1.2-1.5-2.2-2
				c-0.9-0.4-1.9-0.7-3-0.7c-1.6,0-2.9,0.5-4.1,1.5c-1.1,1-1.8,2.4-1.9,4.2h11.9C326.3,112.8,326,111.7,325.5,110.9z"/>
			<path class="st0" d="M347.1,107.6c1.4,1.4,2.1,3.4,2.1,6v11.1h-3.1v-10.7c0-1.9-0.5-3.3-1.4-4.3c-0.9-1-2.2-1.5-3.9-1.5
				c-1.7,0-3,0.5-3.9,1.6c-1,1-1.5,2.5-1.5,4.5v10.4h-3.1v-18.9h3.1v2.7c0.6-1,1.5-1.7,2.5-2.2c1.1-0.5,2.2-0.8,3.5-0.8
				C343.8,105.5,345.6,106.2,347.1,107.6z"/>
		</g>
	</g>
	<path class="st1" d="M140.9,50c-0.5-8.6-3.6-15.3-9.2-20.1c-5.6-4.8-13.4-7.2-23.3-7.2c-9.9,0-17.7,2.4-23.3,7.2
		c-5.6,4.8-8.7,11.5-9.2,20.1c0,0.1,0,0.3,0,0.5c-0.1,1.1-0.1,2.7-0.1,5c0,2.6,0,4.4,0.1,5.5c0.5,8.8,3.5,15.5,8.9,20.3
		c5.5,4.7,13.3,7.1,23.6,7.1c10.2,0,18.1-2.4,23.6-7.1c5.5-4.7,8.5-11.5,8.9-20.3c0.2-2.1,0.2-3.9,0.2-5.5c0-0.9,0-2-0.1-3.2
		C141,51.5,140.9,50.8,140.9,50z M118.6,60.3c-0.2,4.3-1.2,7.5-2.8,9.6c-1.6,2.1-4.1,3.1-7.4,3.1c-3.3,0-5.8-1-7.4-3.1
		c-1.6-2.1-2.6-5.3-2.8-9.6L98,55.4l0.1-4.9c0-0.5,0.1-1,0.1-1.5c0.4-3.5,1.3-6.2,2.7-8c1.6-2.1,4.1-3.2,7.4-3.2
		c3.3,0,5.8,1.1,7.4,3.2c1.6,2.1,2.6,5.3,2.8,9.5c0.1,0.6,0.1,1.6,0.1,3c0,0.6,0,1.2,0,1.9C118.7,57.9,118.7,59.5,118.6,60.3z"/>
	<path class="st1" d="M178.4,38.8c2.2,0,4,0.5,5.4,1.6c1.4,1.1,2.6,2.7,3.5,5c0.4,0.9,0.9,1.5,1.3,1.9c0.5,0.4,1.2,0.6,2.1,0.6H207
		c0.9,0,1.7-0.3,2.3-0.9c0.6-0.6,0.9-1.4,0.9-2.3c-0.2-2.8-1.4-6-3.8-9.4c-2.4-3.4-5.9-6.4-10.7-8.9c-4.8-2.5-10.7-3.8-17.8-3.8
		c-9.3,0-16.8,2.5-22.5,7.4c-5.8,5-8.8,11.8-9.1,20.6l-0.1,5l0.1,4.9c0.4,8.8,3.5,15.6,9.2,20.5c5.7,4.9,13.2,7.4,22.5,7.4
		c7.3,0,13.4-1.3,18.3-4c4.9-2.7,8.4-5.8,10.7-9.3c2.2-3.5,3.3-6.6,3.3-9.1c0-0.8-0.3-1.5-1-2.1c-0.7-0.6-1.4-0.9-2.2-0.9h-16.3
		c-0.9,0-1.6,0.2-2.1,0.6c-0.5,0.4-0.9,1.1-1.3,1.9c-0.9,2.4-2,4-3.3,5.1c-1.3,1-3.2,1.5-5.5,1.5c-3.2,0-5.6-1-7.2-3
		c-1.6-2-2.5-5.1-2.6-9.3l-0.1-4l0.1-4.6C168.9,42.9,172.1,38.8,178.4,38.8z"/>
	<path class="st1" d="M269.4,25.9c-3.7-2.1-7.9-3.2-12.5-3.2c-8,0-14.4,2.8-19.1,8.3V5.6c0-0.9-0.3-1.6-0.9-2.2
		c-0.6-0.6-1.4-0.9-2.3-0.9h-16.4c-0.9,0-1.6,0.3-2.3,0.9c-0.6,0.6-0.9,1.3-0.9,2.2l-0.1,78.5c0,0.9,0.3,1.6,0.9,2.2
		c0.6,0.6,1.4,0.9,2.3,0.9h16.4c0.9,0,1.6-0.3,2.3-0.9c0.6-0.6,0.9-1.3,0.9-2.2l0.1-33.1c0-3.6,0.9-6.4,2.8-8.3c1.9-2,4.4-3,7.7-3
		c3.3,0,5.9,1,7.7,3c1.8,2,2.7,4.8,2.7,8.3l-0.1,33.1c0,0.8,0.3,1.5,0.9,2.1c0.6,0.6,1.3,0.9,2.1,0.9h16.6c0.9,0,1.6-0.3,2.3-0.9
		c0.6-0.6,0.9-1.3,0.9-2.2l0.1-33.8c0-5.8-1.1-10.8-3.2-15C276.1,31.1,273.2,28,269.4,25.9z"/>
	<path class="st1" d="M342,29.2c-4.9-4.4-12.3-6.6-22.4-6.6c-6.3,0-11.6,1-15.9,2.9c-4.3,1.9-7.5,4.3-9.6,7
		c-2.1,2.7-3.2,5.2-3.3,7.4c-0.1,0.7,0.1,1.4,0.7,1.9c0.5,0.5,1.2,0.8,2,0.8h14.1c0.5,0,0.9-0.3,1.2-0.9c0.8-0.4,1.7-1.1,2.8-1.9
		c1.4-1.1,2.6-2,3.7-2.6c1.1-0.6,2.5-0.9,4.1-0.9c2.9,0,5,0.7,6.2,2.1c1.2,1.4,1.8,3.6,1.8,6.6v1.5l-15.1,2.3
		c-8,1.3-14.3,3.7-18.9,7.1c-4.6,3.5-6.9,7.9-6.9,13.5c0,3.5,1,6.7,3,9.6c2,2.9,4.7,5.2,8.3,6.9c3.5,1.7,7.4,2.5,11.7,2.5
		c4.4,0,8.2-0.8,11.3-2.4c3.2-1.6,5.6-3.6,7.4-6.1V84c0,0.8,0.3,1.5,0.9,2.1c0.6,0.6,1.3,0.9,2.1,0.9h15c0.9,0,1.6-0.3,2.2-0.9
		c0.6-0.6,0.9-1.3,0.9-2.1V47.2C349.3,39.6,346.9,33.6,342,29.2z M327.6,60.2c0,4.5-1.1,7.9-3.3,10.2c-2.2,2.4-5.1,3.5-8.7,3.5
		c-2.4,0-4.3-0.6-5.9-1.7c-1.6-1.1-2.4-2.6-2.4-4.5c0-3.6,3.4-6,10.2-7.3l10.1-1.7V60.2z"/>
	<path class="st1" d="M68.9,64.3c-8.3-0.3-12.4-2.8-16.7-8c1.6-0.4,3.1-0.9,4.2-1.5c4.5-2.5,7.7-5.8,10.4-9.8c2.6-4,4-8.8,4-14.5
		c0-8.8-3-15.7-9.1-20.6c-6-4.9-14.4-7.3-25.1-7.3H3c-0.9,0-1.6,0.3-2.2,0.9C0.3,4,0,4.8,0,5.7v78.4c0,0.8,0.3,1.5,0.9,2.1
		c0.6,0.6,1.3,0.9,2.1,0.9h16.7c0.9,0,1.6-0.3,2.3-0.9c0.6-0.6,0.9-1.3,0.9-2.2V59.6c2.7-0.1,6.2,0.1,7.7,2.5
		c16.1,25,27,26.1,38.1,26.1c1.1,0,2-0.8,2-1.9l0-20.1C70.7,65.1,69.9,64.3,68.9,64.3z M47.1,31.4L47.1,31.4c0,3-1,6.3-2.7,8
		c-1.8,1.7-4.5,2.6-8,2.6H22.9V31.4V31V20h13.5c3.5,0,6.1,0.9,8,2.8c1.8,1.8,2.7,5.4,2.7,8.4h0c0,0,0,0.1,0,0.1
		C47.1,31.4,47.1,31.4,47.1,31.4z"/>
</g>
</svg>
